<svg width="59" height="39" viewBox="0 0 59 39" fill="none" xmlns="http://www.w3.org/2000/svg">
<path d="M59 25.8375C59 27.3 56.05 28.275 52.6083 28.7625C50.3958 24.6187 45.9708 21.45 40.8083 19.2562C41.3 18.525 41.7917 18.0375 42.2833 17.3063H44.25C51.8708 17.0625 59 21.6938 59 25.8375ZM16.7167 17.0625H14.75C7.12917 17.0625 0 21.6938 0 25.8375C0 27.3 2.95 28.275 6.39167 28.7625C8.60417 24.6187 13.0292 21.45 18.1917 19.2562L16.7167 17.0625ZM29.5 19.5C34.9083 19.5 39.3333 15.1125 39.3333 9.75C39.3333 4.3875 34.9083 0 29.5 0C24.0917 0 19.6667 4.3875 19.6667 9.75C19.6667 15.1125 24.0917 19.5 29.5 19.5ZM29.5 21.9375C19.4208 21.9375 9.83333 28.275 9.83333 34.125C9.83333 39 29.5 39 29.5 39C29.5 39 49.1667 39 49.1667 34.125C49.1667 28.275 39.5792 21.9375 29.5 21.9375ZM43.5125 14.625H44.25C48.4292 14.625 51.625 11.4563 51.625 7.3125C51.625 3.16875 48.4292 0 44.25 0C43.0208 0 42.0375 0.24375 41.0542 0.73125C43.0208 3.16875 44.25 6.3375 44.25 9.75C44.25 11.4563 44.0042 13.1625 43.5125 14.625ZM14.75 14.625H15.4875C14.9958 13.1625 14.75 11.4563 14.75 9.75C14.75 6.3375 15.9792 3.16875 17.9458 0.73125C16.9625 0.24375 15.9792 0 14.75 0C10.5708 0 7.375 3.16875 7.375 7.3125C7.375 11.4563 10.5708 14.625 14.75 14.625Z" fill="#041730"/>
</svg>
