<svg width="25" height="25" viewBox="0 0 25 25" fill="none" xmlns="http://www.w3.org/2000/svg">
<circle cx="12.3698" cy="12.3698" r="12.3698" fill="white"/>
<path fill-rule="evenodd" clip-rule="evenodd" d="M12.3698 7.8125C11.1323 7.8125 10.977 7.81776 10.4908 7.83984C10.0056 7.86193 9.67433 7.93905 9.38442 8.05158C9.08038 8.16609 8.80498 8.34555 8.57743 8.57743C8.3455 8.80508 8.16605 9.08061 8.05158 9.38477C7.93905 9.67433 7.86228 10.0056 7.83984 10.4908C7.81776 10.977 7.8125 11.1323 7.8125 12.3698C7.8125 13.6073 7.81776 13.7626 7.83984 14.2488C7.86193 14.734 7.93905 15.0653 8.05158 15.3548C8.16832 15.6546 8.32397 15.9087 8.57743 16.1622C8.80498 16.3941 9.08038 16.5735 9.38442 16.688C9.67433 16.8002 10.0056 16.8773 10.4908 16.8998C10.977 16.9218 11.1323 16.9271 12.3698 16.9271C13.6073 16.9271 13.7626 16.9218 14.2488 16.8998C14.734 16.8777 15.0653 16.8006 15.3548 16.688C15.659 16.5736 15.9345 16.3941 16.1622 16.1622C16.3941 15.9345 16.5736 15.659 16.688 15.3548C16.8002 15.0653 16.8773 14.734 16.8998 14.2488C16.9218 13.7626 16.9271 13.6073 16.9271 12.3698C16.9271 11.1323 16.9218 10.977 16.8998 10.4908C16.8777 10.0056 16.8006 9.67433 16.6877 9.38477C16.5733 9.08064 16.394 8.80512 16.1622 8.57743C15.9345 8.34549 15.659 8.16604 15.3548 8.05158C15.0653 7.9394 14.734 7.86228 14.2488 7.83984C13.7626 7.81776 13.6073 7.8125 12.3698 7.8125ZM12.3698 8.63352C13.5866 8.63352 13.7307 8.63842 14.2113 8.66016C14.6555 8.68049 14.897 8.75481 15.0576 8.81721C15.2704 8.89994 15.4221 8.99845 15.5817 9.15796C15.7412 9.31746 15.8397 9.46926 15.9224 9.68205C15.9848 9.8426 16.0591 10.0838 16.0794 10.5283C16.1012 11.0086 16.1061 11.153 16.1061 12.3698C16.1061 13.5866 16.1012 13.7307 16.0794 14.2113C16.0591 14.6558 15.9848 14.897 15.9224 15.0576C15.8494 15.2555 15.733 15.4346 15.5817 15.5817C15.4346 15.733 15.2555 15.8494 15.0576 15.9224C14.897 15.9848 14.6555 16.0591 14.2113 16.0794C13.731 16.1012 13.5866 16.1061 12.3698 16.1061C11.153 16.1061 11.0086 16.1012 10.5283 16.0794C10.0838 16.0591 9.8426 15.9848 9.68205 15.9224C9.48408 15.8494 9.30499 15.733 9.15796 15.5817C9.00666 15.4346 8.89023 15.2555 8.81721 15.0576C8.75481 14.897 8.68049 14.6558 8.66016 14.2113C8.63842 13.731 8.63352 13.5866 8.63352 12.3698C8.63352 11.153 8.63842 11.0089 8.66016 10.5283C8.68049 10.0838 8.75481 9.8426 8.81721 9.68205C8.89994 9.46926 8.99845 9.31746 9.15796 9.15796C9.305 9.00665 9.48409 8.89021 9.68205 8.81721C9.8426 8.75481 10.0838 8.68049 10.5283 8.66016C11.0086 8.63842 11.153 8.63352 12.3698 8.63352Z" fill="#041730"/>
<path fill-rule="evenodd" clip-rule="evenodd" d="M12.3695 9.91586C11.7186 9.91586 11.0945 10.1744 10.6343 10.6346C10.1741 11.0948 9.91553 11.719 9.91553 12.3698C9.91553 13.0206 10.1741 13.6448 10.6343 14.105C11.0945 14.5652 11.7186 14.8237 12.3695 14.8237C13.0203 14.8237 13.6445 14.5652 14.1047 14.105C14.5649 13.6448 14.8234 13.0206 14.8234 12.3698C14.8234 11.719 14.5649 11.0948 14.1047 10.6346C13.6445 10.1744 13.0203 9.91586 12.3695 9.91586ZM12.3695 13.9473C11.9511 13.9473 11.5498 13.7811 11.254 13.4853C10.9581 13.1894 10.7919 12.7882 10.7919 12.3698C10.7919 11.9514 10.9581 11.5502 11.254 11.2543C11.5498 10.9585 11.9511 10.7923 12.3695 10.7923C12.7878 10.7923 13.1891 10.9585 13.4849 11.2543C13.7808 11.5502 13.947 11.9514 13.947 12.3698C13.947 12.7882 13.7808 13.1894 13.4849 13.4853C13.1891 13.7811 12.7878 13.9473 12.3695 13.9473ZM15.4193 9.95091C15.4193 10.0246 15.4048 10.0975 15.3767 10.1656C15.3485 10.2336 15.3071 10.2954 15.2551 10.3475C15.203 10.3996 15.1411 10.4409 15.0731 10.4691C15.005 10.4973 14.9321 10.5118 14.8584 10.5118C14.7848 10.5118 14.7119 10.4973 14.6438 10.4691C14.5758 10.4409 14.5139 10.3996 14.4618 10.3475C14.4097 10.2954 14.3684 10.2336 14.3402 10.1656C14.3121 10.0975 14.2975 10.0246 14.2975 9.95091C14.2975 9.80215 14.3566 9.65949 14.4618 9.5543C14.567 9.44911 14.7097 9.39001 14.8584 9.39001C15.0072 9.39001 15.1499 9.44911 15.2551 9.5543C15.3603 9.65949 15.4193 9.80215 15.4193 9.95091Z" fill="#041730"/>
</svg>
