<svg width="58" height="58" viewBox="0 0 58 58" fill="none" xmlns="http://www.w3.org/2000/svg">
<path d="M58 50.1259C58 51.3098 57.5868 52.315 56.7603 53.1415L53.175 56.7603C52.3039 57.5868 51.2875 58 50.1259 58C48.942 58 47.9368 57.5868 47.1103 56.7603L34.9474 44.5638C34.0986 43.7597 33.6742 42.7545 33.6742 41.5482C33.6742 40.3643 34.1544 39.2921 35.115 38.3316L26.5373 29.7539L22.3154 33.9757C22.0027 34.2885 21.623 34.4448 21.1762 34.4448C20.7294 34.4448 20.3497 34.2885 20.037 33.9757C20.0816 34.0204 20.2213 34.1544 20.4558 34.3778C20.6904 34.6012 20.83 34.7464 20.8746 34.8134C20.9193 34.8804 21.031 35.0089 21.2097 35.1987C21.3884 35.3886 21.5001 35.5394 21.5448 35.6511C21.5894 35.7628 21.6565 35.9135 21.7458 36.1034C21.8352 36.2933 21.8966 36.4776 21.9301 36.6563C21.9636 36.835 21.9804 37.036 21.9804 37.2594C21.9804 38.1082 21.6676 38.8677 21.0422 39.5378C20.9752 39.6049 20.7909 39.8059 20.4893 40.141C20.1878 40.476 19.9755 40.705 19.8527 40.8278C19.7298 40.9507 19.5232 41.135 19.2328 41.3807C18.9424 41.6264 18.6967 41.7995 18.4957 41.9001C18.2946 42.0006 18.0489 42.1011 17.7585 42.2016C17.4681 42.3021 17.1777 42.3524 16.8873 42.3524C15.9938 42.3524 15.2344 42.0397 14.6089 41.4142L0.938186 27.7435C0.312729 27.118 0 26.3586 0 25.465C0 25.1747 0.05026 24.8843 0.15078 24.5939C0.2513 24.3035 0.35182 24.0578 0.45234 23.8567C0.55286 23.6557 0.725977 23.41 0.971693 23.1196C1.21741 22.8292 1.40169 22.6226 1.52455 22.4997C1.64741 22.3769 1.87637 22.1646 2.21144 21.8631C2.5465 21.5615 2.74754 21.3772 2.81456 21.3102C3.48469 20.6848 4.24417 20.372 5.09301 20.372C5.31639 20.372 5.51743 20.3888 5.69613 20.4223C5.87483 20.4558 6.05912 20.5172 6.24899 20.6066C6.43886 20.6959 6.58964 20.7629 6.70133 20.8076C6.81302 20.8523 6.9638 20.964 7.15367 21.1427C7.34354 21.3214 7.47198 21.4331 7.53899 21.4778C7.60601 21.5224 7.7512 21.662 7.97458 21.8966C8.19796 22.1311 8.33199 22.2707 8.37666 22.3154C8.06393 22.0027 7.90757 21.623 7.90757 21.1762C7.90757 20.7294 8.06393 20.3497 8.37666 20.037L20.037 8.37666C20.3497 8.06393 20.7294 7.90757 21.1762 7.90757C21.623 7.90757 22.0027 8.06393 22.3154 8.37666C22.2707 8.33199 22.1311 8.19796 21.8966 7.97458C21.662 7.7512 21.5224 7.60601 21.4778 7.53899C21.4331 7.47198 21.3214 7.34354 21.1427 7.15367C20.964 6.9638 20.8523 6.81302 20.8076 6.70133C20.7629 6.58964 20.6959 6.43886 20.6066 6.24899C20.5172 6.05912 20.4558 5.87483 20.4223 5.69613C20.3888 5.51743 20.372 5.31639 20.372 5.09301C20.372 4.24417 20.6848 3.48469 21.3102 2.81456C21.3772 2.74754 21.5615 2.5465 21.8631 2.21144C22.1646 1.87637 22.3769 1.64741 22.4997 1.52455C22.6226 1.40169 22.8292 1.21741 23.1196 0.971693C23.41 0.725977 23.6557 0.55286 23.8567 0.45234C24.0578 0.35182 24.3035 0.2513 24.5939 0.15078C24.8843 0.05026 25.1747 0 25.465 0C26.3586 0 27.118 0.312729 27.7435 0.938186L41.4142 14.6089C42.0397 15.2344 42.3524 15.9938 42.3524 16.8873C42.3524 17.1777 42.3021 17.4681 42.2016 17.7585C42.1011 18.0489 42.0006 18.2946 41.9001 18.4957C41.7995 18.6967 41.6264 18.9424 41.3807 19.2328C41.135 19.5232 40.9507 19.7298 40.8278 19.8527C40.705 19.9755 40.476 20.1878 40.141 20.4893C39.8059 20.7909 39.6049 20.9752 39.5378 21.0422C38.8677 21.6676 38.1082 21.9804 37.2594 21.9804C37.036 21.9804 36.835 21.9636 36.6563 21.9301C36.4776 21.8966 36.2933 21.8352 36.1034 21.7458C35.9135 21.6565 35.7628 21.5894 35.6511 21.5448C35.5394 21.5001 35.3886 21.3884 35.1987 21.2097C35.0089 21.031 34.8804 20.9193 34.8134 20.8746C34.7464 20.83 34.6012 20.6904 34.3778 20.4558C34.1544 20.2213 34.0204 20.0816 33.9757 20.037C34.2885 20.3497 34.4448 20.7294 34.4448 21.1762C34.4448 21.623 34.2885 22.0027 33.9757 22.3154L29.7539 26.5373L38.3316 35.115C39.2921 34.1544 40.3643 33.6742 41.5482 33.6742C42.7098 33.6742 43.7262 34.0874 44.5973 34.9139L56.7603 47.0768C57.5868 47.948 58 48.9644 58 50.1259Z" fill="#041730"/>
</svg>
