<svg width="55" height="46" viewBox="0 0 55 46" fill="none" xmlns="http://www.w3.org/2000/svg">
<path d="M43.6765 11.5L33.9706 29.5714H53.3824L43.6765 11.5ZM11.3235 11.5L1.61765 29.5714H21.0294L11.3235 11.5ZM32.0749 6.57143C31.839 7.25595 31.4557 7.86775 30.9249 8.40681C30.3941 8.94587 29.7917 9.33519 29.1176 9.57478V42.7143H44.4853C44.7212 42.7143 44.915 42.7913 45.0666 42.9453C45.2183 43.0993 45.2941 43.2961 45.2941 43.5357V45.1786C45.2941 45.4182 45.2183 45.615 45.0666 45.769C44.915 45.923 44.7212 46 44.4853 46H10.5147C10.2788 46 10.085 45.923 9.93336 45.769C9.78171 45.615 9.70588 45.4182 9.70588 45.1786V43.5357C9.70588 43.2961 9.78171 43.0993 9.93336 42.9453C10.085 42.7913 10.2788 42.7143 10.5147 42.7143H25.8824V9.57478C25.2083 9.33519 24.6059 8.94587 24.0751 8.40681C23.5443 7.86775 23.161 7.25595 22.9251 6.57143H10.5147C10.2788 6.57143 10.085 6.49442 9.93336 6.3404C9.78171 6.18638 9.70588 5.98958 9.70588 5.75V4.10714C9.70588 3.86756 9.78171 3.67076 9.93336 3.51674C10.085 3.36272 10.2788 3.28571 10.5147 3.28571H22.9251C23.279 2.31027 23.8687 1.51879 24.6944 0.911272C25.5201 0.303757 26.4553 0 27.5 0C28.5447 0 29.4799 0.303757 30.3056 0.911272C31.1313 1.51879 31.721 2.31027 32.0749 3.28571H44.4853C44.7212 3.28571 44.915 3.36272 45.0666 3.51674C45.2183 3.67076 45.2941 3.86756 45.2941 4.10714V5.75C45.2941 5.98958 45.2183 6.18638 45.0666 6.3404C44.915 6.49442 44.7212 6.57143 44.4853 6.57143H32.0749ZM27.5 6.98214C28.0561 6.98214 28.5321 6.78106 28.9281 6.37891C29.3241 5.97675 29.5221 5.4933 29.5221 4.92857C29.5221 4.36384 29.3241 3.88039 28.9281 3.47824C28.5321 3.07608 28.0561 2.875 27.5 2.875C26.9439 2.875 26.4679 3.07608 26.0719 3.47824C25.6759 3.88039 25.4779 4.36384 25.4779 4.92857C25.4779 5.4933 25.6759 5.97675 26.0719 6.37891C26.4679 6.78106 26.9439 6.98214 27.5 6.98214ZM55 29.5714C55 30.8207 54.6082 31.9416 53.8247 32.9342C53.0411 33.9267 52.0512 34.7054 50.8548 35.2701C49.6584 35.8348 48.4409 36.2584 47.2024 36.5407C45.9639 36.8231 44.7886 36.9643 43.6765 36.9643C42.5643 36.9643 41.389 36.8231 40.1505 36.5407C38.912 36.2584 37.6945 35.8348 36.4982 35.2701C35.3018 34.7054 34.3118 33.9267 33.5283 32.9342C32.7447 31.9416 32.3529 30.8207 32.3529 29.5714C32.3529 29.3832 32.6478 28.6901 33.2376 27.4922C33.8274 26.2943 34.6025 24.8012 35.563 23.0128C36.5234 21.2245 37.4249 19.5517 38.2675 17.9944C39.11 16.4371 39.9694 14.8627 40.8456 13.2712C41.7218 11.6797 42.1936 10.824 42.261 10.7042C42.5643 10.1395 43.0362 9.85714 43.6765 9.85714C44.3168 9.85714 44.7886 10.1395 45.0919 10.7042C45.1593 10.824 45.6311 11.6797 46.5074 13.2712C47.3836 14.8627 48.243 16.4371 49.0855 17.9944C49.928 19.5517 50.8295 21.2245 51.79 23.0128C52.7505 24.8012 53.5256 26.2943 54.1153 27.4922C54.7051 28.6901 55 29.3832 55 29.5714ZM22.6471 29.5714C22.6471 30.8207 22.2553 31.9416 21.4717 32.9342C20.6882 33.9267 19.6982 34.7054 18.5018 35.2701C17.3055 35.8348 16.088 36.2584 14.8495 36.5407C13.611 36.8231 12.4357 36.9643 11.3235 36.9643C10.2114 36.9643 9.03608 36.8231 7.79756 36.5407C6.55905 36.2584 5.34161 35.8348 4.14522 35.2701C2.94884 34.7054 1.95887 33.9267 1.17532 32.9342C0.391774 31.9416 0 30.8207 0 29.5714C0 29.3832 0.294884 28.6901 0.884651 27.4922C1.47442 26.2943 2.24954 24.8012 3.21002 23.0128C4.1705 21.2245 5.072 19.5517 5.91452 17.9944C6.75705 16.4371 7.61642 14.8627 8.49265 13.2712C9.36887 11.6797 9.84069 10.824 9.90809 10.7042C10.2114 10.1395 10.6832 9.85714 11.3235 9.85714C11.9638 9.85714 12.4357 10.1395 12.739 10.7042C12.8064 10.824 13.2782 11.6797 14.1544 13.2712C15.0306 14.8627 15.89 16.4371 16.7325 17.9944C17.5751 19.5517 18.4766 21.2245 19.437 23.0128C20.3975 24.8012 21.1726 26.2943 21.7624 27.4922C22.3522 28.6901 22.6471 29.3832 22.6471 29.5714Z" fill="#041730"/>
</svg>
