<svg width="25" height="25" viewBox="0 0 25 25" fill="none" xmlns="http://www.w3.org/2000/svg">
<path d="M12.5 0C5.59635 0 0 5.59635 0 12.5C0 19.4036 5.59635 25 12.5 25C19.4036 25 25 19.4036 25 12.5C25 5.59635 19.4036 0 12.5 0ZM17.5846 10.2396C17.5898 10.3464 17.5911 10.4531 17.5911 10.5573C17.5911 13.8125 15.1159 17.5638 10.5872 17.5638C9.24908 17.566 7.93876 17.1817 6.8138 16.457C7.00521 16.4805 7.20182 16.4896 7.40104 16.4896C8.55469 16.4896 9.61589 16.0977 10.4583 15.4362C9.94494 15.4261 9.44749 15.2561 9.0353 14.9499C8.62311 14.6437 8.31673 14.2165 8.15885 13.7279C8.52755 13.798 8.90736 13.7833 9.26953 13.6849C8.7123 13.5722 8.21119 13.2703 7.85118 12.8303C7.49117 12.3903 7.29441 11.8393 7.29427 11.2708V11.2409C7.6263 11.4245 8.00651 11.5365 8.41016 11.5495C7.88776 11.2017 7.51795 10.6675 7.37636 10.0562C7.23477 9.44478 7.3321 8.80241 7.64844 8.26042C8.26687 9.02083 9.0381 9.6429 9.9122 10.0863C10.7863 10.5298 11.7438 10.7847 12.7227 10.8346C12.5982 10.3064 12.6518 9.75183 12.875 9.25717C13.0983 8.7625 13.4787 8.35546 13.9571 8.0993C14.4356 7.84315 14.9852 7.75224 15.5207 7.84072C16.0561 7.92919 16.5474 8.19209 16.918 8.58854C17.469 8.47953 17.9974 8.27741 18.4805 7.99089C18.2968 8.56137 17.9123 9.0458 17.3984 9.35417C17.8865 9.29538 18.3631 9.16416 18.8125 8.96484C18.4824 9.4595 18.0666 9.89119 17.5846 10.2396Z" fill="white"/>
</svg>
